<svg xmlns="http://www.w3.org/2000/svg" width="160" height="190" viewBox="0 0 160 190">
  <defs><linearGradient id="g1" x1="0" y1="0" x2="1" y2="1"><stop offset="0.00" stop-color="#FFF0D4"/><stop offset="0.50" stop-color="#FFBE6A"/><stop offset="1.00" stop-color="#F08A2A"/></linearGradient><radialGradient id="g2" cx="0.38" cy="0.3" r="0.8"><stop offset="0.00" stop-color="#FF9E9E"/><stop offset="0.50" stop-color="#F2475A"/><stop offset="1.00" stop-color="#C22840"/></radialGradient></defs>
  <path d="M 26 44 L 134 44 L 142 170 C 142 178 136 184 128 184 L 32 184 C 24 184 18 178 18 170 Z" fill="url(#g1)" stroke="#8E4A10" stroke-width="6" stroke-linejoin="round"/>
  <path d="M 26 44 L 26 44 L 35 36 L 44 44 L 53 36 L 62 44 L 71 36 L 80 44 L 89 36 L 98 44 L 107 36 L 116 44 L 125 36 L 134 44 L 134 44 L 136 58 L 24 58 Z" fill="#FFF0D4" stroke="#8E4A10" stroke-width="5" stroke-linejoin="round"/>
  <path d="M 24 58 L 136 58" stroke="#8E4A10" stroke-width="4" opacity="0.5"/>
  <ellipse cx="44.0" cy="100.0" rx="7.0" ry="26.0" transform="rotate(5 44.0 100.0)" fill="#FFFFFF" opacity="0.45"/>
  <circle cx="80.0" cy="118.0" r="40.0" fill="#FFFFFF" stroke="#8E4A10" stroke-width="5" opacity="0.95"/>
  <path d="M 80 146 C 66 142 50 122 54 108 C 57 98 70 96 80 102 C 90 96 103 98 106 108 C 110 122 94 142 80 146 Z" fill="url(#g2)" stroke="#8E1E30" stroke-width="4.5"/>
  <path d="M 80.0 86.0 L 83.0 94.8 L 92.1 93.0 L 86.0 100.0 L 92.1 107.0 L 83.0 105.2 L 80.0 114.0 L 77.0 105.2 L 67.9 107.0 L 74.0 100.0 L 67.9 93.0 L 77.0 94.8 Z" fill="#6CC66A" stroke="#2E6B3A" stroke-width="3" stroke-linejoin="round"/>
  <ellipse cx="68" cy="124" rx="2" ry="3" fill="#FFE27A"/>
  <ellipse cx="84" cy="122" rx="2" ry="3" fill="#FFE27A"/>
  <ellipse cx="94" cy="134" rx="2" ry="3" fill="#FFE27A"/>
  <ellipse cx="76" cy="138" rx="2" ry="3" fill="#FFE27A"/>
  <path d="M 34 58 C 50 70 110 70 126 58" fill="none" stroke="#C8A070" stroke-width="5" stroke-linecap="round"/>
  <path d="M 118 64 C 128 76 124 88 116 90 M 118 64 C 132 70 140 80 136 88" fill="none" stroke="#C8A070" stroke-width="4" stroke-linecap="round"/>
  <path d="M 134 18 C 135.2 26.8 135.2 26.8 144 28 C 135.2 29.2 135.2 29.2 134 38 C 132.8 29.2 132.8 29.2 124 28 C 132.8 26.8 132.8 26.8 134 18 Z" fill="#FFF6B0" opacity="0.95"/>
</svg>
