<svg xmlns="http://www.w3.org/2000/svg" width="160" height="160" viewBox="0 0 160 160">
  <defs><radialGradient id="g1" cx="0.42" cy="0.38" r="0.75"><stop offset="0.00" stop-color="#6A6480"/><stop offset="0.50" stop-color="#3A3450"/><stop offset="1.00" stop-color="#24202F"/></radialGradient><radialGradient id="g2" cx="0.38" cy="0.32" r="0.8"><stop offset="0.00" stop-color="#A6D4FF"/><stop offset="0.50" stop-color="#3E8EEB"/><stop offset="1.00" stop-color="#1E5DB5"/></radialGradient><clipPath id="g3"><path d="M 44 80 A 36 36 0 1 0 116 80 A 36 36 0 1 0 44 80 Z"/></clipPath></defs>
  <circle cx="80.0" cy="80.0" r="62.0" fill="url(#g1)" stroke="#1A1624" stroke-width="6" />
  <path d="M 134.0 80.0 L 144.0 80.0" stroke="#1A1624" stroke-width="5" stroke-linecap="round"/>
  <path d="M 126.8 107.0 L 135.4 112.0" stroke="#1A1624" stroke-width="5" stroke-linecap="round"/>
  <path d="M 107.0 126.8 L 112.0 135.4" stroke="#1A1624" stroke-width="5" stroke-linecap="round"/>
  <path d="M 80.0 134.0 L 80.0 144.0" stroke="#1A1624" stroke-width="5" stroke-linecap="round"/>
  <path d="M 53.0 126.8 L 48.0 135.4" stroke="#1A1624" stroke-width="5" stroke-linecap="round"/>
  <path d="M 33.2 107.0 L 24.6 112.0" stroke="#1A1624" stroke-width="5" stroke-linecap="round"/>
  <path d="M 26.0 80.0 L 16.0 80.0" stroke="#1A1624" stroke-width="5" stroke-linecap="round"/>
  <path d="M 33.2 53.0 L 24.6 48.0" stroke="#1A1624" stroke-width="5" stroke-linecap="round"/>
  <path d="M 53.0 33.2 L 48.0 24.6" stroke="#1A1624" stroke-width="5" stroke-linecap="round"/>
  <path d="M 80.0 26.0 L 80.0 16.0" stroke="#1A1624" stroke-width="5" stroke-linecap="round"/>
  <path d="M 107.0 33.2 L 112.0 24.6" stroke="#1A1624" stroke-width="5" stroke-linecap="round"/>
  <path d="M 126.8 53.0 L 135.4 48.0" stroke="#1A1624" stroke-width="5" stroke-linecap="round"/>
  <path d="M 44 80 A 36 36 0 1 0 116 80 A 36 36 0 1 0 44 80 Z" fill="url(#g2)" stroke="#10305E" stroke-width="5"/>
  <g clip-path="url(#g3)" fill="#1E5DB5" opacity="0.48"><path d="M -163.5 160.0 L -156.5 160.0 L 3.5 0.0 L -3.5 0.0 Z"/><path d="M -143.5 160.0 L -136.5 160.0 L 23.5 0.0 L 16.5 0.0 Z"/><path d="M -123.5 160.0 L -116.5 160.0 L 43.5 0.0 L 36.5 0.0 Z"/><path d="M -103.5 160.0 L -96.5 160.0 L 63.5 0.0 L 56.5 0.0 Z"/><path d="M -83.5 160.0 L -76.5 160.0 L 83.5 0.0 L 76.5 0.0 Z"/><path d="M -63.5 160.0 L -56.5 160.0 L 103.5 0.0 L 96.5 0.0 Z"/><path d="M -43.5 160.0 L -36.5 160.0 L 123.5 0.0 L 116.5 0.0 Z"/><path d="M -23.5 160.0 L -16.5 160.0 L 143.5 0.0 L 136.5 0.0 Z"/><path d="M -3.5 160.0 L 3.5 160.0 L 163.5 0.0 L 156.5 0.0 Z"/><path d="M 16.5 160.0 L 23.5 160.0 L 183.5 0.0 L 176.5 0.0 Z"/><path d="M 36.5 160.0 L 43.5 160.0 L 203.5 0.0 L 196.5 0.0 Z"/><path d="M 56.5 160.0 L 63.5 160.0 L 223.5 0.0 L 216.5 0.0 Z"/><path d="M 76.5 160.0 L 83.5 160.0 L 243.5 0.0 L 236.5 0.0 Z"/><path d="M 96.5 160.0 L 103.5 160.0 L 263.5 0.0 L 256.5 0.0 Z"/><path d="M 116.5 160.0 L 123.5 160.0 L 283.5 0.0 L 276.5 0.0 Z"/><path d="M 136.5 160.0 L 143.5 160.0 L 303.5 0.0 L 296.5 0.0 Z"/><path d="M 156.5 160.0 L 163.5 160.0 L 323.5 0.0 L 316.5 0.0 Z"/></g>
  <circle cx="80.0" cy="60.0" r="5.0" fill="#FFFFFF" stroke="#10305E" stroke-width="2" opacity="0.9"/>
  <circle cx="99.0" cy="73.8" r="5.0" fill="#FFFFFF" stroke="#10305E" stroke-width="2" opacity="0.9"/>
  <circle cx="91.8" cy="96.2" r="5.0" fill="#FFFFFF" stroke="#10305E" stroke-width="2" opacity="0.9"/>
  <circle cx="68.2" cy="96.2" r="5.0" fill="#FFFFFF" stroke="#10305E" stroke-width="2" opacity="0.9"/>
  <circle cx="61.0" cy="73.8" r="5.0" fill="#FFFFFF" stroke="#10305E" stroke-width="2" opacity="0.9"/>
  <circle cx="80.0" cy="80.0" r="8.0" fill="#E8E6F2" stroke="#3A3456" stroke-width="3" />
  <ellipse cx="60.0" cy="60.0" rx="9.0" ry="5.0" transform="rotate(-30 60.0 60.0)" fill="#FFFFFF" opacity="0.5"/>
</svg>
