<svg xmlns="http://www.w3.org/2000/svg" width="240" height="300" viewBox="0 0 240 300">
  <defs><linearGradient id="g1" x1="0" y1="0" x2="1" y2="0"><stop offset="0.00" stop-color="#C08A55"/><stop offset="1.00" stop-color="#8A5A32"/></linearGradient><radialGradient id="g2" cx="0.4" cy="0.3" r="0.85"><stop offset="0.00" stop-color="#FFEAF4"/><stop offset="0.50" stop-color="#FFC2DE"/><stop offset="1.00" stop-color="#F28FBE"/></radialGradient><linearGradient id="g3" x1="0.0" y1="0.0" x2="0.0" y2="1.0"><stop offset="0.00" stop-color="#A6734A"/><stop offset="1.00" stop-color="#8A5A36"/></linearGradient></defs>
  <path d="M 120.0 204.0 C 114.7 200.3 93.3 185.7 88.0 182.0 " fill="none" stroke="#5E3A22" stroke-width="15" stroke-linecap="round" stroke-linejoin="round"/>
  <path d="M 120.0 204.0 C 114.7 200.3 93.3 185.7 88.0 182.0 " fill="none" stroke="#A87444" stroke-width="6" stroke-linecap="round" stroke-linejoin="round"/>
  <path d="M 120.0 204.0 C 114.7 200.3 93.3 185.7 88.0 182.0 " fill="none" stroke="#FFFFFF" stroke-width="1.7" stroke-linecap="round" opacity="0.3" transform="translate(-1.2 0)"/>
  <path d="M 120.0 190.0 C 125.7 186.7 148.3 173.3 154.0 170.0 " fill="none" stroke="#5E3A22" stroke-width="15" stroke-linecap="round" stroke-linejoin="round"/>
  <path d="M 120.0 190.0 C 125.7 186.7 148.3 173.3 154.0 170.0 " fill="none" stroke="#A87444" stroke-width="6" stroke-linecap="round" stroke-linejoin="round"/>
  <path d="M 120.0 190.0 C 125.7 186.7 148.3 173.3 154.0 170.0 " fill="none" stroke="#FFFFFF" stroke-width="1.7" stroke-linecap="round" opacity="0.3" transform="translate(-1.2 0)"/>
  <path d="M 106.5 288 C 111.0 248 112.8 186 113.7 156 L 126.3 156 C 127.2 186 129.0 248 133.5 288 Z" fill="url(#g1)" stroke="#5E3A22" stroke-width="5" stroke-linejoin="round"/>
  <path d="M 118.2 268 C 119.1 228 120.0 206 120.9 176" fill="none" stroke="#5E3A22" stroke-width="2.5" opacity="0.4"/>
  <g><circle cx="120.0" cy="112.0" r="54.0" fill="#9C2A60" stroke="#9C2A60" stroke-width="11"/><circle cx="78.0" cy="130.0" r="36.0" fill="#9C2A60" stroke="#9C2A60" stroke-width="11"/><circle cx="164.0" cy="128.0" r="38.0" fill="#9C2A60" stroke="#9C2A60" stroke-width="11"/><circle cx="98.0" cy="86.0" r="34.0" fill="#9C2A60" stroke="#9C2A60" stroke-width="11"/><circle cx="144.0" cy="86.0" r="34.0" fill="#9C2A60" stroke="#9C2A60" stroke-width="11"/><circle cx="120.0" cy="152.0" r="38.0" fill="#9C2A60" stroke="#9C2A60" stroke-width="11"/></g>
  <g><circle cx="120.0" cy="112.0" r="54.0" fill="url(#g2)"/><circle cx="78.0" cy="130.0" r="36.0" fill="url(#g2)"/><circle cx="164.0" cy="128.0" r="38.0" fill="url(#g2)"/><circle cx="98.0" cy="86.0" r="34.0" fill="url(#g2)"/><circle cx="144.0" cy="86.0" r="34.0" fill="url(#g2)"/><circle cx="120.0" cy="152.0" r="38.0" fill="url(#g2)"/></g>
  <ellipse cx="98.0" cy="82.0" rx="14.0" ry="8.0" transform="rotate(-25 98.0 82.0)" fill="#FFFFFF" opacity="0.45"/>
  <circle cx="100.0" cy="118.0" r="3.0" fill="#FFFFFF" opacity="0.8"/>
  <circle cx="140.0" cy="100.0" r="3.0" fill="#FFFFFF" opacity="0.8"/>
  <circle cx="124.0" cy="146.0" r="3.0" fill="#FFFFFF" opacity="0.8"/>
  <circle cx="82.0" cy="146.0" r="3.0" fill="#FFFFFF" opacity="0.8"/>
  <circle cx="160.0" cy="144.0" r="3.0" fill="#FFFFFF" opacity="0.8"/>
  <circle cx="76.0" cy="112.0" r="7.0" fill="#FF8FB8" stroke="#9C2A60" stroke-width="3" />
  <circle cx="122.0" cy="70.0" r="7.0" fill="#7CC4FF" stroke="#9C2A60" stroke-width="3" />
  <circle cx="166.0" cy="104.0" r="7.0" fill="#FFD84A" stroke="#9C2A60" stroke-width="3" />
  <circle cx="104.0" cy="146.0" r="7.0" fill="#B98CFF" stroke="#9C2A60" stroke-width="3" />
  <circle cx="150.0" cy="148.0" r="7.0" fill="#8EE07A" stroke="#9C2A60" stroke-width="3" />
  <path d="M 96 292 C 102 282 112 280 120 280 C 130 280 140 282 146 292 Z" fill="url(#g3)" stroke="#5E3A22" stroke-width="4" stroke-linejoin="round"/>
</svg>
