<svg xmlns="http://www.w3.org/2000/svg" width="140" height="150" viewBox="0 0 140 150">
  <defs><linearGradient id="g1" x1="0.0" y1="0.0" x2="0.0" y2="1.0"><stop offset="0.00" stop-color="#9FD0FF"/><stop offset="1.00" stop-color="#3E8EEB"/></linearGradient></defs>
  <polyline points="70.0,40.0 70.0,136.0" fill="none" stroke="#3A2E52" stroke-width="7" stroke-linecap="round" stroke-linejoin="round" />
  <polyline points="70.0,40.0 70.0,136.0" fill="none" stroke="#8A5A34" stroke-width="3.4" stroke-linecap="round" stroke-linejoin="round" />
  <path d="M70 146 Q70 138 62 138" fill="none" stroke="#3A2E52" stroke-width="7" stroke-linecap="round"/>
  <path d="M70 146 Q70 138 62 138" fill="none" stroke="#8A5A34" stroke-width="3.4" stroke-linecap="round"/>
  <polygon points="6.0,62.0 6.4,56.6 7.4,51.2 9.1,45.9 11.5,40.8 14.6,36.0 18.2,31.4 22.4,27.2 27.2,23.4 32.4,19.9 38.0,17.0 44.0,14.5 50.2,12.5 56.7,11.1 63.3,10.3 70.0,10.0 76.7,10.3 83.3,11.1 89.8,12.5 96.0,14.5 102.0,17.0 107.6,19.9 112.8,23.4 117.6,27.2 121.8,31.4 125.4,36.0 128.5,40.8 130.9,45.9 132.6,51.2 133.6,56.6 134.0,62.0 11.3,66.5 16.7,69.8 22.0,71.0 27.3,69.8 32.7,66.5 38.0,62.0 38.0,62.0 43.3,66.5 48.7,69.8 54.0,71.0 59.3,69.8 64.7,66.5 70.0,62.0 70.0,62.0 75.3,66.5 80.7,69.8 86.0,71.0 91.3,69.8 96.7,66.5 102.0,62.0 102.0,62.0 107.3,66.5 112.7,69.8 118.0,71.0 123.3,69.8 128.7,66.5 134.0,62.0" fill="url(#g1)" stroke="#3A2E52" stroke-width="4" stroke-linejoin="round" />
  <polyline points="70.0,12.0 38.0,62.0" fill="none" stroke="#FFFFFF" stroke-width="3" stroke-linecap="round" stroke-linejoin="round" opacity="0.6"/>
  <polyline points="70.0,12.0 70.0,62.0" fill="none" stroke="#FFFFFF" stroke-width="3" stroke-linecap="round" stroke-linejoin="round" opacity="0.6"/>
  <polyline points="70.0,12.0 102.0,62.0" fill="none" stroke="#FFFFFF" stroke-width="3" stroke-linecap="round" stroke-linejoin="round" opacity="0.6"/>
  <circle cx="70.0" cy="9.0" r="5.0" fill="#FFD23F" stroke="#3A2E52" stroke-width="2" stroke-linejoin="round" />
  <ellipse cx="44.0" cy="34.0" rx="14.0" ry="6.0" transform="rotate(-30 44.0 34.0)" fill="#FFFFFF" opacity="0.5"/>
</svg>
