<svg xmlns="http://www.w3.org/2000/svg" width="200" height="260" viewBox="0 0 200 260">
  <defs>
    <radialGradient id="kb" cx="0.4" cy="0.3" r="0.75"><stop offset="0" stop-color="#BDD1F6"/><stop offset="0.5" stop-color="#5A8CE8"/><stop offset="1" stop-color="#5275C9"/></radialGradient>
    <radialGradient id="goz" cx="0.4" cy="0.35" r="0.7"><stop offset="0" stop-color="#6A5A96"/><stop offset="0.55" stop-color="#2A1F45"/><stop offset="1" stop-color="#150F26"/></radialGradient>
    <radialGradient id="yanak" cx="0.5" cy="0.5" r="0.5"><stop offset="0" stop-color="#FF7FA3" stop-opacity="0.85"/><stop offset="1" stop-color="#FF7FA3" stop-opacity="0"/></radialGradient>
    <radialGradient id="yz" cx="0.45" cy="0.35" r="0.8"><stop offset="0" stop-color="#FFFFFF"/><stop offset="0.6" stop-color="#FFF4E8"/><stop offset="1" stop-color="#F4D9C6"/></radialGradient>
    <clipPath id="ust"><path d="M0 0 H200 V162 L186 162 Q100 188 14 162 L0 162 Z"/></clipPath>
    <clipPath id="alt"><path d="M0 260 V162 L14 162 Q100 136 186 162 L200 162 V260 Z"/></clipPath>
    <linearGradient id="ic" x1="0" y1="0" x2="0" y2="1"><stop offset="0" stop-color="#3B2F6B"/><stop offset="1" stop-color="#4959A3"/></linearGradient>
  </defs>
  <g clip-path="url(#ust)">
  <g fill="#3B2F6B" stroke="#3B2F6B" stroke-width="14" stroke-linejoin="round" stroke-linecap="round"><circle cx="100" cy="78" r="56"/><ellipse cx="100" cy="168" rx="86" ry="84"/></g>
  <g fill="url(#kb)"><circle cx="100" cy="78" r="56"/><ellipse cx="100" cy="168" rx="86" ry="84"/></g>
  </g>
  <path d="M90 24 Q100 10 108 23" fill="#5A8CE8" stroke="#3B2F6B" stroke-width="5" stroke-linejoin="round" stroke-linecap="round"/>
  <ellipse cx="100" cy="86" rx="42" ry="36" fill="url(#yz)" stroke="#3B2F6B" stroke-width="5" stroke-linejoin="round" stroke-linecap="round"/>
  <ellipse cx="84" cy="80" rx="8" ry="9.6" fill="url(#goz)"/>
  <circle cx="81.2" cy="76.4" r="3.04" fill="#FFFFFF"/>
  <circle cx="86.8" cy="83.2" r="1.28" fill="#FFFFFF"/>
  <ellipse cx="116" cy="80" rx="8" ry="9.6" fill="url(#goz)"/>
  <circle cx="113.2" cy="76.4" r="3.04" fill="#FFFFFF"/>
  <circle cx="118.8" cy="83.2" r="1.28" fill="#FFFFFF"/>
  <ellipse cx="73" cy="98" rx="13" ry="8" fill="url(#yanak)"/>
  <ellipse cx="127" cy="98" rx="13" ry="8" fill="url(#yanak)"/>
  <path d="M91 92 L109 92 L100 103 Z" fill="#FFA63D" stroke="#3B2F6B" stroke-width="4" stroke-linejoin="round" stroke-linecap="round"/>
  <path d="M52 128 Q100 146 148 128" fill="none" stroke="#3B2F6B" stroke-width="20" stroke-linecap="round"/>
  <path d="M52 128 Q100 146 148 128" fill="none" stroke="#5275C9" stroke-width="10" stroke-linecap="round"/>
  <ellipse cx="60" cy="150" rx="15" ry="11" fill="#8CAEEF" stroke="#3B2F6B" stroke-width="5" stroke-linejoin="round" stroke-linecap="round"/>
  <ellipse cx="140" cy="150" rx="15" ry="11" fill="#8CAEEF" stroke="#3B2F6B" stroke-width="5" stroke-linejoin="round" stroke-linecap="round"/>
  <path d="M186 162 Q100 188 14 162" fill="none" stroke="#3B2F6B" stroke-width="6" stroke-linejoin="round" stroke-linecap="round"/>
  <ellipse cx="72" cy="44" rx="16" ry="7" transform="rotate(-35 72 44)" fill="#FFFFFF" opacity="0.6"/>
</svg>
